<svg preserveAspectRatio="none" overflow="visible" style="display: block;" width="46" height="46" viewBox="0 0 46 46" fill="none" xmlns="http://www.w3.org/2000/svg">
<g id="Enemy / pixel monster">
<g id="Group">
<path id="Vector" d="M36 7H10V41H36V7Z" fill="#171B18"/>
<path id="Vector_2" d="M40 12H6V37H40V12Z" fill="#171B18"/>
<path id="Vector_3" d="M43 19H3V35H43V19Z" fill="#171B18"/>
<path id="Vector_4" d="M17 3H11V14H17V3Z" fill="#171B18"/>
<path id="Vector_5" d="M35 1H29V14H35V1Z" fill="#171B18"/>
<path id="Vector_6" d="M10 26H0V32H10V26Z" fill="#171B18"/>
<path id="Vector_7" d="M46 23H36V30H46V23Z" fill="#171B18"/>
<path id="Vector_8" d="M19 38H8V45H19V38Z" fill="#171B18"/>
<path id="Vector_9" d="M39 38H28V45H39V38Z" fill="#171B18"/>
</g>
<path id="Vector_10" d="M19 24H13V28H19V24Z" fill="#E9A64B"/>
<path id="Vector_11" d="M34 24H28V28H34V24Z" fill="#E9A64B"/>
<path id="Vector_12" d="M28 33H19V35H28V33Z" fill="#D94B3D"/>
</g>
</svg>
