<svg preserveAspectRatio="none" overflow="visible" style="display: block;" width="85.2" height="98.309" viewBox="0 0 85.2 98.309" fill="none" xmlns="http://www.w3.org/2000/svg">
<g id="Group">
<path id="Vector" d="M42.6 1.15449L84.2 25.1545V73.1545L42.6 97.1545L1 73.1545V25.1545L42.6 1.15449Z" fill="#FFF8E7" stroke="#171B16" stroke-width="2"/>
<path id="Vector_2" d="M42.6 17.1545L70.3 33.1545V65.1545L42.6 81.1545L14.9 65.1545V33.1545L42.6 17.1545Z" stroke="#A99E81"/>
<path id="Vector_3" d="M42.6 33.1545L56.5 41.1545V57.1545L42.6 65.1545L28.7 57.1545V41.1545L42.6 33.1545Z" stroke="#C8BDA0"/>
<g id="Vector_4">
<path d="M42.6 1.15449V97.1545ZM1 25.1545L84.2 73.1545ZM84.2 25.1545L1 73.1545Z" fill="black"/>
<path d="M42.6 1.15449V97.1545M1 25.1545L84.2 73.1545M84.2 25.1545L1 73.1545" stroke="#B8AD91"/>
</g>
<path id="Vector_5" d="M42.6 11.1545L73.6 31.1545L66.6 63.1545L42.6 83.1545L12.6 66.1545L17.6 35.1545L42.6 11.1545Z" fill="#E84A3C" fill-opacity="0.42" stroke="#B63B30" stroke-width="2"/>
<g id="Group_2">
<path id="Vector_6" d="M42.6 14.1545C44.2569 14.1545 45.6 12.8113 45.6 11.1545C45.6 9.49763 44.2569 8.15449 42.6 8.15449C40.9431 8.15449 39.6 9.49763 39.6 11.1545C39.6 12.8113 40.9431 14.1545 42.6 14.1545Z" fill="#FFD34A" stroke="#171B16" stroke-width="1.5"/>
<path id="Vector_7" d="M73.6 34.1545C75.2569 34.1545 76.6 32.8113 76.6 31.1545C76.6 29.4976 75.2569 28.1545 73.6 28.1545C71.9431 28.1545 70.6 29.4976 70.6 31.1545C70.6 32.8113 71.9431 34.1545 73.6 34.1545Z" fill="#FFD34A" stroke="#171B16" stroke-width="1.5"/>
<path id="Vector_8" d="M66.6 66.1545C68.2569 66.1545 69.6 64.8113 69.6 63.1545C69.6 61.4976 68.2569 60.1545 66.6 60.1545C64.9431 60.1545 63.6 61.4976 63.6 63.1545C63.6 64.8113 64.9431 66.1545 66.6 66.1545Z" fill="#FFD34A" stroke="#171B16" stroke-width="1.5"/>
<path id="Vector_9" d="M42.6 86.1545C44.2569 86.1545 45.6 84.8113 45.6 83.1545C45.6 81.4976 44.2569 80.1545 42.6 80.1545C40.9431 80.1545 39.6 81.4976 39.6 83.1545C39.6 84.8113 40.9431 86.1545 42.6 86.1545Z" fill="#FFD34A" stroke="#171B16" stroke-width="1.5"/>
<path id="Vector_10" d="M12.6 69.1545C14.2569 69.1545 15.6 67.8113 15.6 66.1545C15.6 64.4976 14.2569 63.1545 12.6 63.1545C10.9431 63.1545 9.6 64.4976 9.6 66.1545C9.6 67.8113 10.9431 69.1545 12.6 69.1545Z" fill="#FFD34A" stroke="#171B16" stroke-width="1.5"/>
<path id="Vector_11" d="M17.6 38.1545C19.2569 38.1545 20.6 36.8113 20.6 35.1545C20.6 33.4976 19.2569 32.1545 17.6 32.1545C15.9431 32.1545 14.6 33.4976 14.6 35.1545C14.6 36.8113 15.9431 38.1545 17.6 38.1545Z" fill="#FFD34A" stroke="#171B16" stroke-width="1.5"/>
</g>
</g>
</svg>
